<?xml version="1.0" encoding="UTF-8"?><svg id="Lager_2" xmlns="http://www.w3.org/2000/svg" viewBox="0 0 455.99 333.96"><defs><style>.cls-1{letter-spacing:-.09em;}.cls-2{letter-spacing:-.05em;}.cls-3{font-family:MuseoModerno-Medium, MuseoModerno;font-size:200px;font-weight:500;}.cls-3,.cls-4{fill:#fff;}.cls-4{stroke-width:0px;}</style></defs><g id="Lager_1-2"><text class="cls-3" transform="translate(0 253.96)"><tspan class="cls-2" x="0" y="0">p</tspan><tspan class="cls-1" x="117.8" y="0">al</tspan><tspan class="cls-2" x="262" y="0">m</tspan></text><path class="cls-4" d="M241.77,109.44s-109.86-26.68-110.38,94.16l19.42-30.41,2.16,8.57,18.57-25.5,2.22,8.89,17-24.98.92,9.68,19.16-21.58.98,8.63,29.95-27.46Z"/><path class="cls-4" d="M244.05,106.93s-55.4-98.54-144.14-16.52l35.48-6.53-4.79,7.42,31.32-3.81-4.99,7.69,29.86-4.6-6.45,7.27,28.85-.7-5.64,6.6,40.51,3.17Z"/><path class="cls-4" d="M250.37,106.93S272.98-3.83,152.2.1l31.1,18.29-8.48,2.47,26.17,17.62-8.81,2.55,25.59,16.07-9.64,1.27,22.27,18.35-8.59,1.3,28.55,28.92Z"/><path class="cls-4" d="M266.25,109.44s109.86-26.68,110.38,94.16l-19.42-30.41-2.16,8.57-18.57-25.5-2.22,8.89-17-24.98-.92,9.68-19.16-21.58-.98,8.63-29.95-27.46Z"/><path class="cls-4" d="M265.08,106.93s55.4-98.54,144.14-16.52l-35.48-6.53,4.79,7.42-31.32-3.81,4.99,7.69-29.86-4.6,6.45,7.27-28.85-.7,5.64,6.6-40.51,3.17Z"/><path class="cls-4" d="M257.18,106.93S239-4.64,359.52,4.09l-31.8,17.04,8.38,2.81-26.85,16.56,8.7,2.9-26.21,15.04,9.58,1.65-22.98,17.45,8.53,1.64-29.68,27.76Z"/></g></svg>