<svg width="16" height="16" viewBox="0 0 16 16" fill="none" xmlns="http://www.w3.org/2000/svg">
<path fill-rule="evenodd" clip-rule="evenodd" d="M0.351343 1.15884C0.576377 0.933873 0.881546 0.807494 1.19974 0.807494C1.51794 0.807495 1.82311 0.933873 2.04814 1.15884L8.04814 7.15884C8.27311 7.38387 8.39949 7.68904 8.39949 8.00724C8.39949 8.32544 8.27311 8.63061 8.04814 8.85564L2.04814 14.8556C1.82182 15.0742 1.5187 15.1952 1.20406 15.1924C0.889426 15.1897 0.58845 15.0635 0.36596 14.841C0.14347 14.6185 0.0172676 14.3176 0.0145344 14.0029C0.0118002 13.6883 0.132753 13.3852 0.351343 13.1588L5.50294 8.00724L0.351343 2.85564C0.126378 2.6306 -1.02003e-06 2.32544 -1.00612e-06 2.00724C-9.92208e-07 1.68904 0.126378 1.38387 0.351343 1.15884ZM7.55134 1.15884C7.77638 0.933873 8.08155 0.807495 8.39974 0.807495C8.71794 0.807495 9.02311 0.933873 9.24814 1.15884L15.2481 7.15884C15.4731 7.38387 15.5995 7.68904 15.5995 8.00724C15.5995 8.32544 15.4731 8.63061 15.2481 8.85564L9.24814 14.8556C9.02182 15.0742 8.7187 15.1952 8.40406 15.1924C8.08943 15.1897 7.78845 15.0635 7.56596 14.841C7.34347 14.6185 7.21727 14.3176 7.21453 14.0029C7.2118 13.6883 7.33275 13.3852 7.55134 13.1588L12.7029 8.00724L7.55134 2.85564C7.32638 2.6306 7.2 2.32544 7.2 2.00724C7.2 1.68904 7.32638 1.38387 7.55134 1.15884Z" fill="white"/>
</svg>
