<svg width="30" height="30" viewBox="0 0 30 30" fill="none" xmlns="http://www.w3.org/2000/svg">
<path fill-rule="evenodd" clip-rule="evenodd" d="M4.28571 0C3.14907 0 2.05898 0.451529 1.25526 1.25526C0.451529 2.05898 0 3.14907 0 4.28571V25.7143C0 26.8509 0.451529 27.941 1.25526 28.7447C2.05898 29.5485 3.14907 30 4.28571 30H25.7143C26.8509 30 27.941 29.5485 28.7447 28.7447C29.5485 27.941 30 26.8509 30 25.7143V4.28571C30 3.14907 29.5485 2.05898 28.7447 1.25526C27.941 0.451529 26.8509 0 25.7143 0H4.28571ZM6.64714 9.20786C7.32629 9.20786 7.97761 8.93807 8.45784 8.45784C8.93807 7.97761 9.20786 7.32629 9.20786 6.64714C9.20786 5.968 8.93807 5.31667 8.45784 4.83644C7.97761 4.35622 7.32629 4.08643 6.64714 4.08643C5.968 4.08643 5.31667 4.35622 4.83644 4.83644C4.35622 5.31667 4.08643 5.968 4.08643 6.64714C4.08643 7.32629 4.35622 7.97761 4.83644 8.45784C5.31667 8.93807 5.968 9.20786 6.64714 9.20786ZM8.79 25.3136V11.2157H4.50429V25.3136H8.79ZM11.6357 11.2157H15.9214V13.1036C16.5536 12.1136 17.9421 10.7807 20.5243 10.7807C23.6057 10.7807 25.2793 12.8229 25.2793 16.7079C25.2793 16.8943 25.2964 17.745 25.2964 17.745V25.3114H21.0107V17.7471C21.0107 16.7079 20.7921 14.6657 18.4821 14.6657C16.17 14.6657 15.975 17.2329 15.9214 18.9129V25.3114H11.6357V11.2157Z" fill="white"/>
</svg>
