<svg width="50" height="36" viewBox="0 0 50 36" fill="none" xmlns="http://www.w3.org/2000/svg">
<path d="M0 3C0 2.33696 0.263392 1.70107 0.732233 1.23223C1.20107 0.763393 1.83696 0.5 2.5 0.5H47.5C48.163 0.5 48.7989 0.763393 49.2678 1.23223C49.7366 1.70107 50 2.33696 50 3C50 3.66304 49.7366 4.29893 49.2678 4.76777C48.7989 5.23661 48.163 5.5 47.5 5.5H2.5C1.83696 5.5 1.20107 5.23661 0.732233 4.76777C0.263392 4.29893 0 3.66304 0 3ZM0 18.08C0 17.417 0.263392 16.7811 0.732233 16.3122C1.20107 15.8434 1.83696 15.58 2.5 15.58H47.5C48.163 15.58 48.7989 15.8434 49.2678 16.3122C49.7366 16.7811 50 17.417 50 18.08C50 18.743 49.7366 19.3789 49.2678 19.8478C48.7989 20.3166 48.163 20.58 47.5 20.58H2.5C1.83696 20.58 1.20107 20.3166 0.732233 19.8478C0.263392 19.3789 0 18.743 0 18.08ZM2.5 30.6625C1.83696 30.6625 1.20107 30.9259 0.732233 31.3947C0.263392 31.8636 0 32.4995 0 33.1625C0 33.8255 0.263392 34.4614 0.732233 34.9303C1.20107 35.3991 1.83696 35.6625 2.5 35.6625H47.5C48.163 35.6625 48.7989 35.3991 49.2678 34.9303C49.7366 34.4614 50 33.8255 50 33.1625C50 32.4995 49.7366 31.8636 49.2678 31.3947C48.7989 30.9259 48.163 30.6625 47.5 30.6625H2.5Z" fill="#2EC4B6"/>
</svg>
